PathFileType	4	(X/Y/Z)	C:\Users\Basilio\Documents\Thesis Gigler\squatting_fais\c3dfiles\058\SLS_front_pre3\markers_experimental.trc
DataRate	CameraRate	NumFrames	NumMarkers	Units	OrigDataRate	OrigDataStartFrame	OrigNumFrames
200.000000	200.000000	4	61	mm	200.000000	1105	1263
Frame#	Time	FHD			LBHD			RBHD			C7			T10			CLAV			LSHO			LUUPA			LMUPA			LDUPA			LLEP			LMEP			LRAD			LUL			LRFIN			RSHO			RUPA1			RMUPA			RDUPA			RLEP			RMEP			RRAD			RUL			RUFIN			LASI			RASI			USACR			LSACR			RSACR			LTHI1			LTHI2			LTHI3			LTHI4			LLFC			LMFC			LTIB1			LTIB2			LTIB3			LTIB4			LLMAL			LMMAL			LHEE			LMT1			LMT2			LMT5			RTHI			RTHI2			RTHI3			RTHI4			RLFC			RMFC			RTIB1			RTIB2			RTIB3			RTIB4			RLMAL			RMMAL			RHEE			RMT1			RMT2			RMT5			
		X1	Y1	Z1	X2	Y2	Z2	X3	Y3	Z3	X4	Y4	Z4	X5	Y5	Z5	X6	Y6	Z6	X7	Y7	Z7	X8	Y8	Z8	X9	Y9	Z9	X10	Y10	Z10	X11	Y11	Z11	X12	Y12	Z12	X13	Y13	Z13	X14	Y14	Z14	X15	Y15	Z15	X16	Y16	Z16	X17	Y17	Z17	X18	Y18	Z18	X19	Y19	Z19	X20	Y20	Z20	X21	Y21	Z21	X22	Y22	Z22	X23	Y23	Z23	X24	Y24	Z24	X25	Y25	Z25	X26	Y26	Z26	X27	Y27	Z27	X28	Y28	Z28	X29	Y29	Z29	X30	Y30	Z30	X31	Y31	Z31	X32	Y32	Z32	X33	Y33	Z33	X34	Y34	Z34	X35	Y35	Z35	X36	Y36	Z36	X37	Y37	Z37	X38	Y38	Z38	X39	Y39	Z39	X40	Y40	Z40	X41	Y41	Z41	X42	Y42	Z42	X43	Y43	Z43	X44	Y44	Z44	X45	Y45	Z45	X46	Y46	Z46	X47	Y47	Z47	X48	Y48	Z48	X49	Y49	Z49	X50	Y50	Z50	X51	Y51	Z51	X52	Y52	Z52	X53	Y53	Z53	X54	Y54	Z54	X55	Y55	Z55	X56	Y56	Z56	X57	Y57	Z57	X58	Y58	Z58	X59	Y59	Z59	X60	Y60	Z60	X61	Y61	Z61	

1106	5.525	-296.2129821777344	1817.192138671875	-641.1936645507814	-447.2653808593751	1759.486206054688	-720.4164428710939	-279.0534362792969	1825.39013671875	-782.463317871094	-453.9477844238282	1601.8466796875	-738.6931152343751	-447.843231201172	1292.404907226563	-731.8060302734376	-295.5449829101563	1559.014770507813	-713.9016723632814	-294.7188415527344	1598.208984375	-881.400085449219	-253.2519836425782	1410.654296875	-1020.706604003906	-204.2331848144532	1419.155395507813	-1015.590270996094	-204.8580169677735	1362.853393554688	-1038.047241210938	-148.6135559082032	1307.078979492188	-1048.210205078125	-178.5898742675782	1259.022338867188	-1006.834777832031	56.79896926879884	1176.937866210938	-896.0148925781252	83.79349517822267	1181.094116210938	-972.6134033203127	152.8082275390625	1143.511474609375	-875.851989746094	-333.7390441894532	1596.775634765625	-543.0120239257814	-305.9199218750001	1388.158203125	-418.4924316406251	-257.5676269531251	1399.422119140625	-421.8667907714845	-253.9604949951172	1344.569458007813	-400.3452758789064	-211.4231567382813	1288.411865234375	-391.3539428710939	-227.0589141845704	1240.936157226563	-457.4594726562501	41.26031875610352	1215.989990234375	-506.7194213867189	47.16059494018555	1208.74072265625	-426.3049926757814	134.1658935546875	1198.038818359375	-500.4189453125001	-264.6636962890626	1112.319213867188	-874.252868652344	-259.9992980957032	1081.264526367188	-632.8853149414064	-455.7905883789064	1173.645751953125	-730.8262939453126	-463.8309936523439	1144.494018554688	-761.5162353515626	-457.2171630859376	1138.124877929688	-704.4816284179689	-273.9937438964844	843.276306152344	-987.116638183594	-236.3947906494141	767.4270629882814	-990.083435058594	-192.3487854003907	768.525817871094	-964.047058105469	-258.1668090820313	712.7102661132814	-995.950866699219	-253.4714965820313	614.5053710937501	-1005.613159179688	-238.117172241211	584.4843139648439	-880.4398193359377	-222.3223571777344	470.0446777343751	-994.2427368164065	-275.8093566894532	455.2880859375001	-1058.33837890625	-241.3690032958985	435.5090332031251	-1035.494873046875	-258.7422180175782	351.8854675292969	-1027.505615234375	-357.1628417968751	172.0854797363282	-1079.85400390625	-333.4171752929688	174.6160430908203	-989.908630371094	-427.4278259277345	154.0279541015625	-1032.143310546875	-216.6626129150391	87.78674316406251	-1009.500183105469	-210.6010284423829	87.0810012817383	-1056.57763671875	-261.0653991699219	76.69886779785158	-1109.456909179688	-371.0675048828126	870.3148193359377	-585.2862548828126	-334.7589111328126	815.5213623046877	-580.1424560546876	-301.2351074218751	815.6127929687502	-578.8323364257814	-359.0412597656251	737.8083496093751	-603.6109619140626	-349.2456665039063	558.0854492187501	-624.9638671875001	-301.0729980468751	549.6384887695314	-752.6325073242189	-296.1030273437501	355.4532165527344	-711.2475585937501	-341.0164489746094	275.8627319335938	-651.6954956054689	-303.8751831054688	270.0071105957032	-681.2446289062501	-312.3268127441407	227.1590576171876	-717.9804687500001	-374.1384277343751	116.3628234863282	-686.9598388671876	-341.4418640136719	143.5318756103516	-771.5586547851565	-437.5218200683595	101.6669616699219	-752.1036376953126	-226.7544555664063	61.69533538818361	-764.4445800781251	-223.0874938964844	57.24510192871095	-712.6247558593751	-270.5229187011719	24.52950477600098	-662.3264770507814	
1107	5.53	-295.3365783691407	1817.309814453125	-641.9226074218751	-446.6603088378907	1759.562377929688	-721.2661132812501	-278.5939636230469	1825.373046875	-783.2900390625002	-453.1632080078126	1602.020141601563	-739.6390991210939	-447.4263305664064	1292.567016601563	-732.4606323242189	-295.0271301269532	1558.891967773438	-714.6323242187501	-293.8064270019532	1598.140014648438	-882.2348632812502	-254.3313140869141	1409.41162109375	-1021.818420410156	-205.5478515625001	1417.39306640625	-1016.63037109375	-207.1730651855469	1360.913940429688	-1038.983276367188	-151.8988494873047	1304.46728515625	-1049.351318359375	-182.8391876220703	1256.86083984375	-1007.75537109375	52.45116806030275	1170.458129882813	-899.121276855469	80.12634277343751	1174.8671875	-976.280700683594	147.5585632324219	1135.134765625	-879.9224243164065	-332.6621093750001	1596.455200195313	-544.2238159179689	-307.5858154296876	1387.093139648438	-419.7776184082032	-258.8748779296876	1397.463012695313	-422.8792114257814	-256.6293334960938	1342.348999023438	-401.5734863281251	-214.9333801269532	1285.873168945313	-392.3995666503907	-230.8711242675782	1238.800170898438	-458.611541748047	36.94707107543946	1208.932495117188	-506.5939025878907	41.90162658691407	1201.146240234375	-426.2500305175782	129.4194488525391	1188.946166992188	-499.7999572753907	-264.4609375000001	1112.03076171875	-874.858337402344	-259.9646911621094	1081.203979492188	-633.4598388671876	-456.7207946777345	1173.504760742188	-731.1066284179689	-463.6156311035157	1144.721435546875	-762.2401123046876	-456.8370361328126	1138.278686523438	-705.3488159179689	-275.4877929687501	842.880065917969	-987.9187622070315	-238.5126647949219	766.8723754882814	-990.9794921875002	-194.9103393554688	767.4545898437501	-964.7410888671877	-260.6411132812501	712.1581420898439	-997.024597167969	-256.4888610839844	613.9134521484376	-1006.755493164063	-240.8842926025391	583.9845581054689	-881.1541137695315	-225.6492004394532	469.1883544921876	-994.968933105469	-278.8667297363282	454.5865783691407	-1059.42822265625	-244.6334838867188	434.7849731445314	-1036.295654296875	-261.8579711914063	351.1632385253907	-1028.2080078125	-359.9267272949219	171.2766571044922	-1080.974853515625	-336.4996643066407	174.0144500732422	-991.071960449219	-430.1763000488282	153.0623474121094	-1033.541625976563	-219.9371795654297	86.91109466552736	-1009.877380371094	-213.4799194335938	86.1917190551758	-1056.899536132813	-263.7228088378907	75.58850097656251	-1109.89306640625	-370.8127746582032	870.4735107421877	-585.7075805664064	-334.6140441894532	815.4915161132815	-580.4663696289064	-301.0800476074219	815.713562011719	-579.2921752929689	-358.9456787109376	737.9447021484376	-603.8851928710939	-349.0879821777344	558.0947265625001	-625.1851806640626	-301.2043762207032	549.6560058593751	-752.9512329101564	-296.2253112792969	355.4277038574219	-711.4411621093751	-340.9844970703126	275.8576354980469	-651.8036499023439	-303.8581542968751	269.9559631347657	-681.4816284179689	-312.2610168457032	227.152572631836	-718.1143798828126	-374.1390380859376	116.3302688598633	-686.9478759765626	-341.5192565917969	143.4638061523438	-771.6011962890627	-437.5162658691407	101.6656112670899	-752.1023559570314	-226.7470092773438	61.68238067626955	-764.4361572265626	-223.1123809814454	57.15745162963869	-712.6080322265626	-270.4977111816407	24.61205863952637	-662.2703857421876	
1108	5.535	-294.7982482910157	1817.031494140625	-642.5981445312501	-446.0568237304689	1759.823486328125	-721.9417114257814	-277.7471313476563	1825.436279296875	-784.0252075195315	-452.3483276367189	1602.3046875	-740.3779907226564	-447.0405273437501	1292.542602539063	-733.2503051757814	-294.2914428710938	1558.922241210938	-715.3602294921876	-292.8297729492188	1597.838745117188	-883.2117309570315	-256.2987670898438	1408.150512695313	-1022.493957519531	-207.043930053711	1415.539672851563	-1017.611511230469	-209.4289855957032	1359.155395507813	-1040.0546875	-155.300048828125	1301.975830078125	-1050.48291015625	-186.7015533447266	1254.726318359375	-1008.806457519531	47.90682601928712	1164.397583007813	-902.328308105469	75.0242156982422	1168.370727539063	-979.783630371094	142.504623413086	1126.639892578125	-884.1131591796877	-332.0247802734376	1596.124877929688	-544.7653808593751	-309.6447143554688	1385.656982421875	-420.9512023925782	-260.7352905273438	1395.638916015625	-423.8910522460939	-259.1982116699219	1340.444946289063	-402.7742004394532	-218.5627746582032	1283.111328125	-393.3475341796876	-234.9009399414063	1236.863525390625	-459.9276123046876	32.76430892944337	1201.924072265625	-506.4888916015626	37.09321975708009	1193.971557617188	-425.469451904297	124.7888565063477	1180.126098632813	-499.0884399414064	-264.4093933105469	1111.640747070313	-875.577331542969	-259.5400695800782	1080.947875976563	-634.1429443359376	-456.0400390625001	1173.8193359375	-731.7351074218751	-463.3077697753907	1144.80126953125	-762.7293090820314	-456.696746826172	1138.328125	-705.8281250000001	-277.2105712890626	842.5623168945315	-988.7890625000002	-240.6642150878907	766.1083374023439	-991.8210449218752	-196.4622650146485	766.5005493164064	-965.8834228515627	-263.0664062500001	711.5689086914064	-997.818786621094	-259.4104003906251	613.8613281250001	-1007.5478515625	-244.0831909179688	583.4791259765626	-882.3673095703127	-228.5523986816407	468.572967529297	-995.804138183594	-281.7497558593751	453.9075927734376	-1060.330444335938	-247.2875671386719	434.1749267578126	-1037.356201171875	-264.9837951660157	350.6079406738282	-1029.191650390625	-362.6051635742188	170.3844757080078	-1082.054809570313	-339.5398559570313	173.1995849609375	-992.010925292969	-433.3771362304689	152.7247924804688	-1035.017211914063	-222.7117767333985	86.09156036376955	-1009.930358886719	-216.6192779541016	84.82899475097658	-1056.897216796875	-266.3808288574219	74.13330841064455	-1110.364135742188	-370.4826660156251	870.5706176757815	-586.0950317382814	-334.6086425781251	815.4326782226565	-580.7128295898439	-301.0564270019532	815.516540527344	-579.6741943359376	-358.8555297851563	737.9729614257814	-604.3002319335939	-348.9740295410157	558.1323852539064	-625.4048461914064	-301.3453979492188	549.6060791015626	-753.2414550781251	-296.2473754882813	355.4409179687501	-711.7119750976564	-340.8666076660157	275.8722534179688	-651.9826660156251	-303.8042602539063	269.9937438964844	-681.5958251953126	-312.3099975585938	227.1206665039063	-718.2473754882814	-374.0539245605469	116.3269119262696	-686.9530639648439	-341.5775146484376	143.439926147461	-771.6268310546877	-437.6141967773439	101.6484832763672	-752.0528564453126	-226.7838745117188	61.6843719482422	-764.4572143554689	-223.1395721435547	57.16593170166017	-712.6087036132814	-270.5484619140626	24.48437500000001	-662.3619384765626	
1109	5.54	-294.1358032226563	1817.04150390625	-643.3789672851564	-445.082000732422	1759.557006835938	-722.6860961914064	-277.0174865722657	1825.400024414063	-784.803649902344	-451.5510253906251	1602.410522460938	-741.0192871093751	-446.5812072753907	1292.57080078125	-733.8662109375001	-293.5098266601563	1558.898681640625	-716.1800537109376	-292.1733703613282	1597.957397460938	-884.2234497070315	-257.8704833984376	1407.101196289063	-1023.604248046875	-208.6351165771485	1413.642944335938	-1018.756530761719	-211.7276458740235	1357.365966796875	-1040.927124023438	-158.6456756591797	1299.544677734375	-1051.694946289063	-190.4494171142578	1252.7666015625	-1009.742370605469	43.35745239257813	1158.317016601563	-905.5924072265627	69.71076965332033	1161.942504882813	-983.1587524414065	137.4013977050782	1118.290771484375	-888.275329589844	-331.2101745605469	1596.11279296875	-545.4283447265626	-310.9134216308594	1384.562255859375	-421.8617248535157	-262.0562744140626	1393.947387695313	-424.779266357422	-261.5455932617188	1338.660278320313	-404.0104064941407	-222.0437774658204	1280.610595703125	-395.0589294433595	-239.0565032958985	1234.521118164063	-461.2299804687501	28.24702835083009	1194.96337890625	-506.291717529297	32.11886978149415	1187.08154296875	-425.268524169922	119.6092071533203	1171.053100585938	-498.2781677246095	-264.1641540527344	1111.417724609375	-876.1904296875002	-259.2527465820313	1080.7392578125	-634.2539672851564	-455.8065795898439	1174.056640625	-732.3942260742189	-462.9948120117189	1144.978271484375	-763.2393188476564	-456.6072387695314	1138.399536132813	-706.3620605468751	-278.7965393066407	842.127380371094	-989.5805664062502	-242.6346588134766	765.4578857421876	-992.7058715820315	-198.757064819336	765.8959960937501	-966.726501464844	-265.5540161132813	711.1461791992189	-998.7373657226565	-262.4933471679688	613.1871948242189	-1008.711059570313	-247.2871093750001	582.8792724609376	-883.3676757812502	-231.5024566650391	467.9928283691407	-996.6101684570315	-284.3884277343751	453.3857727050782	-1061.317260742188	-250.2855834960938	433.3933105468751	-1038.100219726563	-267.6412353515626	350.1078796386719	-1030.038208007813	-365.2882080078126	169.6731414794922	-1082.964111328125	-342.4795227050782	172.7213897705078	-992.9653320312502	-436.2926025390626	152.2145233154297	-1036.312622070313	-226.0155639648438	84.9861297607422	-1010.312561035156	-219.2187042236329	83.89221191406251	-1057.1025390625	-269.3374328613282	73.3613739013672	-1110.684204101563	-370.4367980957032	870.5969848632815	-586.4544067382814	-334.5324401855469	815.4647216796877	-580.9134521484376	-300.8617248535157	815.469665527344	-580.0910644531251	-358.6671752929688	737.9085083007814	-604.6096191406251	-349.0412902832032	558.1490478515626	-625.6618652343751	-301.3944702148438	549.6508178710939	-753.5275268554689	-296.3035278320313	355.5091247558594	-711.9926757812501	-340.8105163574219	275.9506835937501	-652.2182617187501	-303.7861938476563	269.9862060546876	-681.7955932617189	-312.3271179199219	227.0686950683594	-718.3616333007814	-374.0253295898438	116.2975769042969	-686.9641113281251	-341.5435180664063	143.3999786376953	-771.6683349609377	-437.5984191894532	101.627799987793	-751.9989013671876	-226.7242736816407	61.69851303100587	-764.4338378906251	-223.1485137939454	57.17321777343751	-712.6203002929689	-270.5608825683594	24.55567169189454	-662.3091430664064	
